<?xml version="1.0" encoding="UTF-8" standalone="no"?><svg xmlns="http://www.w3.org/2000/svg" xmlns:xlink="http://www.w3.org/1999/xlink" contentScriptType="application/ecmascript" contentStyleType="text/css" height="442px" preserveAspectRatio="none" style="width:386px;height:442px;" version="1.1" viewBox="0 0 386 442" width="386px" zoomAndPan="magnify"><defs><filter height="300%" id="f1quhako19je71" width="300%" x="-1" y="-1"><feGaussianBlur result="blurOut" stdDeviation="2.0"/><feColorMatrix in="blurOut" result="blurOut2" type="matrix" values="0 0 0 0 0 0 0 0 0 0 0 0 0 0 0 0 0 0 .4 0"/><feOffset dx="4.0" dy="4.0" in="blurOut2" result="blurOut3"/><feBlend in="SourceGraphic" in2="blurOut3" mode="normal"/></filter></defs><g><!--class User--><rect fill="#FEFECE" filter="url(#f1quhako19je71)" height="73.6094" id="User" style="stroke: #A80036; stroke-width: 1.5;" width="81" x="6" y="243"/><ellipse cx="30" cy="259" fill="#ADD1B2" rx="11" ry="11" style="stroke: #A80036; stroke-width: 1.0;"/><path d="M33.0938,264.9219 Q32.2344,265.3906 31.5156,265.5625 Q30.8125,265.7344 30.0156,265.7344 Q27.4531,265.7344 26.0469,263.9531 Q24.6563,262.1563 24.6563,258.9688 Q24.6563,255.8125 26.0625,254 Q27.4688,252.1875 30.0156,252.1875 Q30.8125,252.1875 31.5156,252.375 Q32.2344,252.5469 33.0938,253.0156 L33.0938,255.6719 Q31.9688,254.7344 31.3125,254.5 Q30.6563,254.25 30.0156,254.25 Q28.5625,254.25 27.8281,255.3906 Q27.0938,256.5156 27.0938,258.9688 Q27.0938,261.4219 27.8281,262.5625 Q28.5625,263.6875 30.0156,263.6875 Q30.6719,263.6875 31.3125,263.4531 Q31.9688,263.2031 33.0938,262.2656 L33.0938,264.9219 Z "/><text fill="#000000" font-family="sans-serif" font-size="12" lengthAdjust="spacingAndGlyphs" textLength="29" x="46" y="263.1543">User</text><line style="stroke: #A80036; stroke-width: 1.5;" x1="7" x2="86" y1="275" y2="275"/><text fill="#000000" font-family="sans-serif" font-size="11" lengthAdjust="spacingAndGlyphs" textLength="69" x="12" y="289.2104">string name</text><text fill="#000000" font-family="sans-serif" font-size="11" lengthAdjust="spacingAndGlyphs" textLength="68" x="12" y="302.0151">string email</text><line style="stroke: #A80036; stroke-width: 1.5;" x1="7" x2="86" y1="308.6094" y2="308.6094"/><!--class Training--><rect fill="#FEFECE" filter="url(#f1quhako19je71)" height="86.4141" id="Training" style="stroke: #A80036; stroke-width: 1.5;" width="218" x="122.5" y="237"/><ellipse cx="202.25" cy="253" fill="#ADD1B2" rx="11" ry="11" style="stroke: #A80036; stroke-width: 1.0;"/><path d="M205.3438,258.9219 Q204.4844,259.3906 203.7656,259.5625 Q203.0625,259.7344 202.2656,259.7344 Q199.7031,259.7344 198.2969,257.9531 Q196.9063,256.1563 196.9063,252.9688 Q196.9063,249.8125 198.3125,248 Q199.7188,246.1875 202.2656,246.1875 Q203.0625,246.1875 203.7656,246.375 Q204.4844,246.5469 205.3438,247.0156 L205.3438,249.6719 Q204.2188,248.7344 203.5625,248.5 Q202.9063,248.25 202.2656,248.25 Q200.8125,248.25 200.0781,249.3906 Q199.3438,250.5156 199.3438,252.9688 Q199.3438,255.4219 200.0781,256.5625 Q200.8125,257.6875 202.2656,257.6875 Q202.9219,257.6875 203.5625,257.4531 Q204.2188,257.2031 205.3438,256.2656 L205.3438,258.9219 Z "/><text fill="#000000" font-family="sans-serif" font-size="12" lengthAdjust="spacingAndGlyphs" textLength="50" x="222.75" y="257.1543">Training</text><line style="stroke: #A80036; stroke-width: 1.5;" x1="123.5" x2="339.5" y1="269" y2="269"/><text fill="#000000" font-family="sans-serif" font-size="11" lengthAdjust="spacingAndGlyphs" textLength="69" x="128.5" y="283.2104">string name</text><text fill="#000000" font-family="sans-serif" font-size="11" lengthAdjust="spacingAndGlyphs" textLength="100" x="128.5" y="296.0151">string description</text><line style="stroke: #A80036; stroke-width: 1.5;" x1="123.5" x2="339.5" y1="302.6094" y2="302.6094"/><text fill="#000000" font-family="sans-serif" font-size="11" lengthAdjust="spacingAndGlyphs" textLength="206" x="128.5" y="316.8198">void CreateExercice(TrainingHistory)</text><!--class Programm--><rect fill="#FEFECE" filter="url(#f1quhako19je71)" height="60.8047" id="Programm" style="stroke: #A80036; stroke-width: 1.5;" width="96" x="162.5" y="116"/><ellipse cx="177.5" cy="132" fill="#ADD1B2" rx="11" ry="11" style="stroke: #A80036; stroke-width: 1.0;"/><path d="M180.5938,137.9219 Q179.7344,138.3906 179.0156,138.5625 Q178.3125,138.7344 177.5156,138.7344 Q174.9531,138.7344 173.5469,136.9531 Q172.1563,135.1563 172.1563,131.9688 Q172.1563,128.8125 173.5625,127 Q174.9688,125.1875 177.5156,125.1875 Q178.3125,125.1875 179.0156,125.375 Q179.7344,125.5469 180.5938,126.0156 L180.5938,128.6719 Q179.4688,127.7344 178.8125,127.5 Q178.1563,127.25 177.5156,127.25 Q176.0625,127.25 175.3281,128.3906 Q174.5938,129.5156 174.5938,131.9688 Q174.5938,134.4219 175.3281,135.5625 Q176.0625,136.6875 177.5156,136.6875 Q178.1719,136.6875 178.8125,136.4531 Q179.4688,136.2031 180.5938,135.2656 L180.5938,137.9219 Z "/><text fill="#000000" font-family="sans-serif" font-size="12" lengthAdjust="spacingAndGlyphs" textLength="64" x="191.5" y="136.1543">Programm</text><line style="stroke: #A80036; stroke-width: 1.5;" x1="163.5" x2="257.5" y1="148" y2="148"/><text fill="#000000" font-family="sans-serif" font-size="11" lengthAdjust="spacingAndGlyphs" textLength="69" x="168.5" y="162.2104">string name</text><line style="stroke: #A80036; stroke-width: 1.5;" x1="163.5" x2="257.5" y1="168.8047" y2="168.8047"/><!--class ProgrammHistory--><rect fill="#FEFECE" filter="url(#f1quhako19je71)" height="48" id="ProgrammHistory" style="stroke: #A80036; stroke-width: 1.5;" width="139" x="141" y="8"/><ellipse cx="156" cy="24" fill="#ADD1B2" rx="11" ry="11" style="stroke: #A80036; stroke-width: 1.0;"/><path d="M159.0938,29.9219 Q158.2344,30.3906 157.5156,30.5625 Q156.8125,30.7344 156.0156,30.7344 Q153.4531,30.7344 152.0469,28.9531 Q150.6563,27.1563 150.6563,23.9688 Q150.6563,20.8125 152.0625,19 Q153.4688,17.1875 156.0156,17.1875 Q156.8125,17.1875 157.5156,17.375 Q158.2344,17.5469 159.0938,18.0156 L159.0938,20.6719 Q157.9688,19.7344 157.3125,19.5 Q156.6563,19.25 156.0156,19.25 Q154.5625,19.25 153.8281,20.3906 Q153.0938,21.5156 153.0938,23.9688 Q153.0938,26.4219 153.8281,27.5625 Q154.5625,28.6875 156.0156,28.6875 Q156.6719,28.6875 157.3125,28.4531 Q157.9688,28.2031 159.0938,27.2656 L159.0938,29.9219 Z "/><text fill="#000000" font-family="sans-serif" font-size="12" lengthAdjust="spacingAndGlyphs" textLength="107" x="170" y="28.1543">ProgrammHistory</text><line style="stroke: #A80036; stroke-width: 1.5;" x1="142" x2="279" y1="40" y2="40"/><line style="stroke: #A80036; stroke-width: 1.5;" x1="142" x2="279" y1="48" y2="48"/><!--class Session--><rect fill="#FEFECE" filter="url(#f1quhako19je71)" height="48" id="Session" style="stroke: #A80036; stroke-width: 1.5;" width="81" x="294" y="122.5"/><ellipse cx="309" cy="138.5" fill="#ADD1B2" rx="11" ry="11" style="stroke: #A80036; stroke-width: 1.0;"/><path d="M312.0938,144.4219 Q311.2344,144.8906 310.5156,145.0625 Q309.8125,145.2344 309.0156,145.2344 Q306.4531,145.2344 305.0469,143.4531 Q303.6563,141.6563 303.6563,138.4688 Q303.6563,135.3125 305.0625,133.5 Q306.4688,131.6875 309.0156,131.6875 Q309.8125,131.6875 310.5156,131.875 Q311.2344,132.0469 312.0938,132.5156 L312.0938,135.1719 Q310.9688,134.2344 310.3125,134 Q309.6563,133.75 309.0156,133.75 Q307.5625,133.75 306.8281,134.8906 Q306.0938,136.0156 306.0938,138.4688 Q306.0938,140.9219 306.8281,142.0625 Q307.5625,143.1875 309.0156,143.1875 Q309.6719,143.1875 310.3125,142.9531 Q310.9688,142.7031 312.0938,141.7656 L312.0938,144.4219 Z "/><text fill="#000000" font-family="sans-serif" font-size="12" lengthAdjust="spacingAndGlyphs" textLength="49" x="323" y="142.6543">Session</text><line style="stroke: #A80036; stroke-width: 1.5;" x1="295" x2="374" y1="154.5" y2="154.5"/><line style="stroke: #A80036; stroke-width: 1.5;" x1="295" x2="374" y1="162.5" y2="162.5"/><!--class TrainingHistory--><rect fill="#FEFECE" filter="url(#f1quhako19je71)" height="48" id="TrainingHistory" style="stroke: #A80036; stroke-width: 1.5;" width="125" x="76" y="383"/><ellipse cx="91" cy="399" fill="#ADD1B2" rx="11" ry="11" style="stroke: #A80036; stroke-width: 1.0;"/><path d="M94.0938,404.9219 Q93.2344,405.3906 92.5156,405.5625 Q91.8125,405.7344 91.0156,405.7344 Q88.4531,405.7344 87.0469,403.9531 Q85.6563,402.1563 85.6563,398.9688 Q85.6563,395.8125 87.0625,394 Q88.4688,392.1875 91.0156,392.1875 Q91.8125,392.1875 92.5156,392.375 Q93.2344,392.5469 94.0938,393.0156 L94.0938,395.6719 Q92.9688,394.7344 92.3125,394.5 Q91.6563,394.25 91.0156,394.25 Q89.5625,394.25 88.8281,395.3906 Q88.0938,396.5156 88.0938,398.9688 Q88.0938,401.4219 88.8281,402.5625 Q89.5625,403.6875 91.0156,403.6875 Q91.6719,403.6875 92.3125,403.4531 Q92.9688,403.2031 94.0938,402.2656 L94.0938,404.9219 Z "/><text fill="#000000" font-family="sans-serif" font-size="12" lengthAdjust="spacingAndGlyphs" textLength="93" x="105" y="403.1543">TrainingHistory</text><line style="stroke: #A80036; stroke-width: 1.5;" x1="77" x2="200" y1="415" y2="415"/><line style="stroke: #A80036; stroke-width: 1.5;" x1="77" x2="200" y1="423" y2="423"/><!--link ProgrammHistory to User--><path d="M190.306,56.0051 C176.7846,72.4777 158.8948,95.0625 144.5,116 C115.5617,158.0912 85.9758,208.8893 66.9936,242.687 " fill="none" id="ProgrammHistory-User" style="stroke: #A80036; stroke-width: 1.0;"/><!--link ProgrammHistory to Programm--><path d="M210.5,56.003 C210.5,73.4463 210.5,97.1912 210.5,115.9818 " fill="none" id="ProgrammHistory-Programm" style="stroke: #A80036; stroke-width: 1.0;"/><!--link ProgrammHistory to Session--><path d="M236.4945,56.003 C257.5155,75.4135 286.9872,102.6273 308.1127,122.1343 " fill="none" id="ProgrammHistory-Session" style="stroke: #A80036; stroke-width: 1.0;"/><!--link User to TrainingHistory--><path d="M73.3575,317.0751 C88.7383,338.3072 107.5943,364.3367 121.0543,382.9174 " fill="none" id="User-TrainingHistory" style="stroke: #A80036; stroke-width: 1.0;"/><!--link Training to TrainingHistory--><path d="M199.7548,323.351 C185.2317,343.1836 168.5664,365.9416 156.2887,382.7079 " fill="none" id="Training-TrainingHistory" style="stroke: #A80036; stroke-width: 1.0;"/><!--link Programm to Training--><path d="M217.3858,190.2742 C219.7396,205.2377 222.3694,221.9556 224.7152,236.8681 " fill="none" id="Programm-Training" style="stroke: #A80036; stroke-width: 1.0;"/><polygon fill="#A80036" points="215.3178,177.1276,212.2988,183.6763,217.1826,188.9818,220.2016,182.4331,215.3178,177.1276" style="stroke: #A80036; stroke-width: 1.0;"/><!--
@startuml
class User {
	string name
	string email
}

class Training {
	string name
	string description
	
	void CreateExercice(TrainingHistory)
}

class Programm {
	string name
}

ProgrammHistory - - User
ProgrammHistory - - Programm
ProgrammHistory - - Session

User - - TrainingHistory
Training - - TrainingHistory
Programm *- - Training

@enduml

PlantUML version 1.2018.09(Fri Jul 27 18:58:18 CEST 2018)
(GPL source distribution)
Java Runtime: OpenJDK Runtime Environment
JVM: OpenJDK 64-Bit Server VM
Java Version: 11.0.2+9-Ubuntu-3ubuntu118.10.3
Operating System: Linux
OS Version: 4.18.0-17-generic
Default Encoding: UTF-8
Language: en
Country: US
--></g></svg>